<mxfile host="Electron" modified="2024-05-07T07:56:32.030Z" agent="Mozilla/5.0 (Windows NT 10.0; Win64; x64) AppleWebKit/537.36 (KHTML, like Gecko) draw.io/24.2.5 Chrome/120.0.6099.109 Electron/28.1.0 Safari/537.36" etag="PwHGNm50EP6NjjG_nGj5" version="24.2.5" type="device">
  <diagram name="Page-1" id="ION47B7nF4oemv-RpYxX">
    <mxGraphModel dx="1671" dy="1045" grid="1" gridSize="10" guides="1" tooltips="1" connect="1" arrows="1" fold="1" page="1" pageScale="1" pageWidth="4681" pageHeight="3300" math="0" shadow="0">
      <root>
        <mxCell id="0" />
        <mxCell id="1" parent="0" />
        <mxCell id="A49D8YO8xU1FnvHoC66s-71" style="edgeStyle=orthogonalEdgeStyle;rounded=0;orthogonalLoop=1;jettySize=auto;html=1;" edge="1" parent="1" source="A49D8YO8xU1FnvHoC66s-50" target="A49D8YO8xU1FnvHoC66s-70">
          <mxGeometry relative="1" as="geometry" />
        </mxCell>
        <mxCell id="A49D8YO8xU1FnvHoC66s-50" value="" style="points=[[0.35,0,0],[0.98,0.51,0],[1,0.71,0],[0.67,1,0],[0,0.795,0],[0,0.65,0]];verticalLabelPosition=bottom;sketch=0;html=1;verticalAlign=top;aspect=fixed;align=center;pointerEvents=1;shape=mxgraph.cisco19.user;fillColor=#005073;strokeColor=none;" vertex="1" parent="1">
          <mxGeometry x="1220" y="1649" width="100" height="100" as="geometry" />
        </mxCell>
        <mxCell id="A49D8YO8xU1FnvHoC66s-51" value="AWS Cloud" style="points=[[0,0],[0.25,0],[0.5,0],[0.75,0],[1,0],[1,0.25],[1,0.5],[1,0.75],[1,1],[0.75,1],[0.5,1],[0.25,1],[0,1],[0,0.75],[0,0.5],[0,0.25]];outlineConnect=0;gradientColor=none;html=1;whiteSpace=wrap;fontSize=12;fontStyle=0;container=1;pointerEvents=0;collapsible=0;recursiveResize=0;shape=mxgraph.aws4.group;grIcon=mxgraph.aws4.group_aws_cloud_alt;strokeColor=#FF8000;fillColor=none;verticalAlign=top;align=left;spacingLeft=30;fontColor=#232F3E;dashed=0;" vertex="1" parent="1">
          <mxGeometry x="1830" y="1560" width="890" height="810" as="geometry" />
        </mxCell>
        <mxCell id="A49D8YO8xU1FnvHoC66s-52" value="Region" style="points=[[0,0],[0.25,0],[0.5,0],[0.75,0],[1,0],[1,0.25],[1,0.5],[1,0.75],[1,1],[0.75,1],[0.5,1],[0.25,1],[0,1],[0,0.75],[0,0.5],[0,0.25]];outlineConnect=0;gradientColor=none;html=1;whiteSpace=wrap;fontSize=12;fontStyle=0;container=1;pointerEvents=0;collapsible=0;recursiveResize=0;shape=mxgraph.aws4.group;grIcon=mxgraph.aws4.group_region;strokeColor=#00A4A6;fillColor=none;verticalAlign=top;align=left;spacingLeft=30;fontColor=#147EBA;dashed=1;" vertex="1" parent="A49D8YO8xU1FnvHoC66s-51">
          <mxGeometry x="80" y="60" width="740" height="550" as="geometry" />
        </mxCell>
        <mxCell id="A49D8YO8xU1FnvHoC66s-53" value="Availability Zone" style="fillColor=none;strokeColor=#147EBA;dashed=1;verticalAlign=top;fontStyle=0;fontColor=#147EBA;whiteSpace=wrap;html=1;" vertex="1" parent="A49D8YO8xU1FnvHoC66s-52">
          <mxGeometry x="80" y="190" width="240" height="280" as="geometry" />
        </mxCell>
        <mxCell id="A49D8YO8xU1FnvHoC66s-54" style="rounded=0;orthogonalLoop=1;jettySize=auto;html=1;" edge="1" parent="A49D8YO8xU1FnvHoC66s-52" source="A49D8YO8xU1FnvHoC66s-55" target="A49D8YO8xU1FnvHoC66s-58">
          <mxGeometry relative="1" as="geometry" />
        </mxCell>
        <mxCell id="A49D8YO8xU1FnvHoC66s-126" value="EPD" style="edgeLabel;html=1;align=center;verticalAlign=middle;resizable=0;points=[];" vertex="1" connectable="0" parent="A49D8YO8xU1FnvHoC66s-54">
          <mxGeometry x="-0.4727" y="2" relative="1" as="geometry">
            <mxPoint as="offset" />
          </mxGeometry>
        </mxCell>
        <mxCell id="A49D8YO8xU1FnvHoC66s-55" value="&lt;font color=&quot;#ffffff&quot;&gt;Systems Manager&lt;/font&gt;" style="sketch=0;points=[[0,0,0],[0.25,0,0],[0.5,0,0],[0.75,0,0],[1,0,0],[0,1,0],[0.25,1,0],[0.5,1,0],[0.75,1,0],[1,1,0],[0,0.25,0],[0,0.5,0],[0,0.75,0],[1,0.25,0],[1,0.5,0],[1,0.75,0]];points=[[0,0,0],[0.25,0,0],[0.5,0,0],[0.75,0,0],[1,0,0],[0,1,0],[0.25,1,0],[0.5,1,0],[0.75,1,0],[1,1,0],[0,0.25,0],[0,0.5,0],[0,0.75,0],[1,0.25,0],[1,0.5,0],[1,0.75,0]];outlineConnect=0;fontColor=#232F3E;fillColor=#E7157B;strokeColor=#ffffff;dashed=0;verticalLabelPosition=bottom;verticalAlign=top;align=center;html=1;fontSize=12;fontStyle=0;aspect=fixed;shape=mxgraph.aws4.resourceIcon;resIcon=mxgraph.aws4.systems_manager;" vertex="1" parent="A49D8YO8xU1FnvHoC66s-52">
          <mxGeometry x="161" y="40" width="78" height="78" as="geometry" />
        </mxCell>
        <mxCell id="A49D8YO8xU1FnvHoC66s-56" value="Availability Zone" style="fillColor=none;strokeColor=#147EBA;dashed=1;verticalAlign=top;fontStyle=0;fontColor=#147EBA;whiteSpace=wrap;html=1;" vertex="1" parent="A49D8YO8xU1FnvHoC66s-52">
          <mxGeometry x="400" y="190" width="240" height="280" as="geometry" />
        </mxCell>
        <mxCell id="A49D8YO8xU1FnvHoC66s-57" value="Instance 1" style="outlineConnect=0;dashed=0;verticalLabelPosition=bottom;verticalAlign=top;align=center;html=1;shape=mxgraph.aws3.ec2;fillColor=#F58534;gradientColor=none;" vertex="1" parent="A49D8YO8xU1FnvHoC66s-52">
          <mxGeometry x="110" y="295" width="56.5" height="70" as="geometry" />
        </mxCell>
        <mxCell id="A49D8YO8xU1FnvHoC66s-58" value="Instance 2" style="outlineConnect=0;dashed=0;verticalLabelPosition=bottom;verticalAlign=top;align=center;html=1;shape=mxgraph.aws3.ec2;fillColor=#F58534;gradientColor=none;" vertex="1" parent="A49D8YO8xU1FnvHoC66s-52">
          <mxGeometry x="228" y="295" width="56.5" height="70" as="geometry" />
        </mxCell>
        <mxCell id="A49D8YO8xU1FnvHoC66s-59" value="Instance 3" style="outlineConnect=0;dashed=0;verticalLabelPosition=bottom;verticalAlign=top;align=center;html=1;shape=mxgraph.aws3.ec2;fillColor=#F58534;gradientColor=none;" vertex="1" parent="A49D8YO8xU1FnvHoC66s-52">
          <mxGeometry x="440" y="290" width="56.5" height="70" as="geometry" />
        </mxCell>
        <mxCell id="A49D8YO8xU1FnvHoC66s-60" value="Instance 4" style="outlineConnect=0;dashed=0;verticalLabelPosition=bottom;verticalAlign=top;align=center;html=1;shape=mxgraph.aws3.ec2;fillColor=#F58534;gradientColor=none;" vertex="1" parent="A49D8YO8xU1FnvHoC66s-52">
          <mxGeometry x="540" y="290" width="56.5" height="70" as="geometry" />
        </mxCell>
        <mxCell id="A49D8YO8xU1FnvHoC66s-61" style="rounded=0;orthogonalLoop=1;jettySize=auto;html=1;entryX=0.5;entryY=0;entryDx=0;entryDy=0;entryPerimeter=0;" edge="1" parent="A49D8YO8xU1FnvHoC66s-52" source="A49D8YO8xU1FnvHoC66s-55" target="A49D8YO8xU1FnvHoC66s-57">
          <mxGeometry relative="1" as="geometry" />
        </mxCell>
        <mxCell id="A49D8YO8xU1FnvHoC66s-125" value="TPD" style="edgeLabel;html=1;align=center;verticalAlign=middle;resizable=0;points=[];" vertex="1" connectable="0" parent="A49D8YO8xU1FnvHoC66s-61">
          <mxGeometry x="-0.4932" y="1" relative="1" as="geometry">
            <mxPoint as="offset" />
          </mxGeometry>
        </mxCell>
        <mxCell id="A49D8YO8xU1FnvHoC66s-62" style="rounded=0;orthogonalLoop=1;jettySize=auto;html=1;entryX=0.5;entryY=0;entryDx=0;entryDy=0;entryPerimeter=0;" edge="1" parent="A49D8YO8xU1FnvHoC66s-52" source="A49D8YO8xU1FnvHoC66s-55" target="A49D8YO8xU1FnvHoC66s-59">
          <mxGeometry relative="1" as="geometry" />
        </mxCell>
        <mxCell id="A49D8YO8xU1FnvHoC66s-127" value="BWP" style="edgeLabel;html=1;align=center;verticalAlign=middle;resizable=0;points=[];" vertex="1" connectable="0" parent="A49D8YO8xU1FnvHoC66s-62">
          <mxGeometry x="-0.4214" relative="1" as="geometry">
            <mxPoint as="offset" />
          </mxGeometry>
        </mxCell>
        <mxCell id="A49D8YO8xU1FnvHoC66s-63" style="rounded=0;orthogonalLoop=1;jettySize=auto;html=1;entryX=0.5;entryY=0;entryDx=0;entryDy=0;entryPerimeter=0;" edge="1" parent="A49D8YO8xU1FnvHoC66s-52" source="A49D8YO8xU1FnvHoC66s-55" target="A49D8YO8xU1FnvHoC66s-60">
          <mxGeometry relative="1" as="geometry" />
        </mxCell>
        <mxCell id="A49D8YO8xU1FnvHoC66s-128" value="GTP" style="edgeLabel;html=1;align=center;verticalAlign=middle;resizable=0;points=[];" vertex="1" connectable="0" parent="A49D8YO8xU1FnvHoC66s-63">
          <mxGeometry x="-0.3664" y="1" relative="1" as="geometry">
            <mxPoint as="offset" />
          </mxGeometry>
        </mxCell>
        <mxCell id="A49D8YO8xU1FnvHoC66s-64" value="&lt;font color=&quot;#ffffff&quot;&gt;S3 Bucket&lt;/font&gt;" style="sketch=0;points=[[0,0,0],[0.25,0,0],[0.5,0,0],[0.75,0,0],[1,0,0],[0,1,0],[0.25,1,0],[0.5,1,0],[0.75,1,0],[1,1,0],[0,0.25,0],[0,0.5,0],[0,0.75,0],[1,0.25,0],[1,0.5,0],[1,0.75,0]];outlineConnect=0;fontColor=#232F3E;fillColor=#7AA116;strokeColor=#ffffff;dashed=0;verticalLabelPosition=bottom;verticalAlign=top;align=center;html=1;fontSize=12;fontStyle=0;aspect=fixed;shape=mxgraph.aws4.resourceIcon;resIcon=mxgraph.aws4.s3;" vertex="1" parent="A49D8YO8xU1FnvHoC66s-51">
          <mxGeometry x="550" y="660" width="78" height="78" as="geometry" />
        </mxCell>
        <mxCell id="A49D8YO8xU1FnvHoC66s-65" style="rounded=0;orthogonalLoop=1;jettySize=auto;html=1;entryX=0.5;entryY=0;entryDx=0;entryDy=0;entryPerimeter=0;" edge="1" parent="A49D8YO8xU1FnvHoC66s-51" source="A49D8YO8xU1FnvHoC66s-57" target="A49D8YO8xU1FnvHoC66s-64">
          <mxGeometry relative="1" as="geometry">
            <mxPoint x="450" y="660" as="targetPoint" />
          </mxGeometry>
        </mxCell>
        <mxCell id="A49D8YO8xU1FnvHoC66s-66" style="rounded=0;orthogonalLoop=1;jettySize=auto;html=1;" edge="1" parent="A49D8YO8xU1FnvHoC66s-51" source="A49D8YO8xU1FnvHoC66s-59" target="A49D8YO8xU1FnvHoC66s-64">
          <mxGeometry relative="1" as="geometry">
            <mxPoint x="450" y="660" as="targetPoint" />
          </mxGeometry>
        </mxCell>
        <mxCell id="A49D8YO8xU1FnvHoC66s-67" style="rounded=0;orthogonalLoop=1;jettySize=auto;html=1;entryX=0.5;entryY=0;entryDx=0;entryDy=0;entryPerimeter=0;" edge="1" parent="A49D8YO8xU1FnvHoC66s-51" source="A49D8YO8xU1FnvHoC66s-60" target="A49D8YO8xU1FnvHoC66s-64">
          <mxGeometry relative="1" as="geometry">
            <mxPoint x="550.0000000000005" y="670.0000000000002" as="targetPoint" />
          </mxGeometry>
        </mxCell>
        <mxCell id="A49D8YO8xU1FnvHoC66s-68" style="rounded=0;orthogonalLoop=1;jettySize=auto;html=1;entryX=0.5;entryY=0;entryDx=0;entryDy=0;entryPerimeter=0;" edge="1" parent="A49D8YO8xU1FnvHoC66s-51" source="A49D8YO8xU1FnvHoC66s-58" target="A49D8YO8xU1FnvHoC66s-64">
          <mxGeometry relative="1" as="geometry">
            <mxPoint x="450" y="660" as="targetPoint" />
          </mxGeometry>
        </mxCell>
        <mxCell id="A49D8YO8xU1FnvHoC66s-75" style="edgeStyle=orthogonalEdgeStyle;rounded=0;orthogonalLoop=1;jettySize=auto;html=1;" edge="1" parent="A49D8YO8xU1FnvHoC66s-51" source="A49D8YO8xU1FnvHoC66s-73" target="A49D8YO8xU1FnvHoC66s-64">
          <mxGeometry relative="1" as="geometry" />
        </mxCell>
        <mxCell id="A49D8YO8xU1FnvHoC66s-73" value="Lambda Function" style="outlineConnect=0;dashed=0;verticalLabelPosition=bottom;verticalAlign=top;align=center;html=1;shape=mxgraph.aws3.lambda_function;fillColor=#F58534;gradientColor=none;" vertex="1" parent="A49D8YO8xU1FnvHoC66s-51">
          <mxGeometry x="246" y="663" width="69" height="72" as="geometry" />
        </mxCell>
        <mxCell id="A49D8YO8xU1FnvHoC66s-70" value="&lt;font color=&quot;#ffffff&quot;&gt;AWS CLI&lt;/font&gt;" style="sketch=0;outlineConnect=0;fontColor=#232F3E;gradientColor=none;fillColor=#ED7100;strokeColor=none;dashed=0;verticalLabelPosition=bottom;verticalAlign=top;align=center;html=1;fontSize=12;fontStyle=0;aspect=fixed;pointerEvents=1;shape=mxgraph.aws4.ecs_copilot_cli;" vertex="1" parent="1">
          <mxGeometry x="1470" y="1650" width="109.1" height="100" as="geometry" />
        </mxCell>
        <mxCell id="A49D8YO8xU1FnvHoC66s-72" style="edgeStyle=orthogonalEdgeStyle;rounded=0;orthogonalLoop=1;jettySize=auto;html=1;entryX=0;entryY=0.5;entryDx=0;entryDy=0;entryPerimeter=0;" edge="1" parent="1" source="A49D8YO8xU1FnvHoC66s-70" target="A49D8YO8xU1FnvHoC66s-55">
          <mxGeometry relative="1" as="geometry" />
        </mxCell>
        <mxCell id="A49D8YO8xU1FnvHoC66s-76" style="edgeStyle=orthogonalEdgeStyle;rounded=0;orthogonalLoop=1;jettySize=auto;html=1;entryX=0;entryY=0.5;entryDx=0;entryDy=0;entryPerimeter=0;" edge="1" parent="1" source="A49D8YO8xU1FnvHoC66s-70" target="A49D8YO8xU1FnvHoC66s-73">
          <mxGeometry relative="1" as="geometry">
            <Array as="points">
              <mxPoint x="1700" y="1700" />
              <mxPoint x="1700" y="2259" />
            </Array>
          </mxGeometry>
        </mxCell>
        <mxCell id="A49D8YO8xU1FnvHoC66s-78" value="" style="points=[[0.35,0,0],[0.98,0.51,0],[1,0.71,0],[0.67,1,0],[0,0.795,0],[0,0.65,0]];verticalLabelPosition=bottom;sketch=0;html=1;verticalAlign=top;aspect=fixed;align=center;pointerEvents=1;shape=mxgraph.cisco19.user;fillColor=#005073;strokeColor=none;" vertex="1" parent="1">
          <mxGeometry x="1220" y="669" width="100" height="100" as="geometry" />
        </mxCell>
        <mxCell id="A49D8YO8xU1FnvHoC66s-79" value="AWS Cloud" style="points=[[0,0],[0.25,0],[0.5,0],[0.75,0],[1,0],[1,0.25],[1,0.5],[1,0.75],[1,1],[0.75,1],[0.5,1],[0.25,1],[0,1],[0,0.75],[0,0.5],[0,0.25]];outlineConnect=0;gradientColor=none;html=1;whiteSpace=wrap;fontSize=12;fontStyle=0;container=1;pointerEvents=0;collapsible=0;recursiveResize=0;shape=mxgraph.aws4.group;grIcon=mxgraph.aws4.group_aws_cloud_alt;strokeColor=#FF8000;fillColor=none;verticalAlign=top;align=left;spacingLeft=30;fontColor=#232F3E;dashed=0;" vertex="1" parent="1">
          <mxGeometry x="1830" y="580" width="890" height="810" as="geometry" />
        </mxCell>
        <mxCell id="A49D8YO8xU1FnvHoC66s-80" value="Region" style="points=[[0,0],[0.25,0],[0.5,0],[0.75,0],[1,0],[1,0.25],[1,0.5],[1,0.75],[1,1],[0.75,1],[0.5,1],[0.25,1],[0,1],[0,0.75],[0,0.5],[0,0.25]];outlineConnect=0;gradientColor=none;html=1;whiteSpace=wrap;fontSize=12;fontStyle=0;container=1;pointerEvents=0;collapsible=0;recursiveResize=0;shape=mxgraph.aws4.group;grIcon=mxgraph.aws4.group_region;strokeColor=#00A4A6;fillColor=none;verticalAlign=top;align=left;spacingLeft=30;fontColor=#147EBA;dashed=1;" vertex="1" parent="A49D8YO8xU1FnvHoC66s-79">
          <mxGeometry x="80" y="60" width="740" height="550" as="geometry" />
        </mxCell>
        <mxCell id="A49D8YO8xU1FnvHoC66s-81" value="Availability Zone" style="fillColor=none;strokeColor=#147EBA;dashed=1;verticalAlign=top;fontStyle=0;fontColor=#147EBA;whiteSpace=wrap;html=1;" vertex="1" parent="A49D8YO8xU1FnvHoC66s-80">
          <mxGeometry x="80" y="190" width="240" height="280" as="geometry" />
        </mxCell>
        <mxCell id="A49D8YO8xU1FnvHoC66s-82" style="rounded=0;orthogonalLoop=1;jettySize=auto;html=1;" edge="1" parent="A49D8YO8xU1FnvHoC66s-80" source="A49D8YO8xU1FnvHoC66s-83" target="A49D8YO8xU1FnvHoC66s-86">
          <mxGeometry relative="1" as="geometry" />
        </mxCell>
        <mxCell id="A49D8YO8xU1FnvHoC66s-122" value="GTQ" style="edgeLabel;html=1;align=center;verticalAlign=middle;resizable=0;points=[];" vertex="1" connectable="0" parent="A49D8YO8xU1FnvHoC66s-82">
          <mxGeometry x="-0.4342" y="2" relative="1" as="geometry">
            <mxPoint as="offset" />
          </mxGeometry>
        </mxCell>
        <mxCell id="A49D8YO8xU1FnvHoC66s-83" value="&lt;font color=&quot;#ffffff&quot;&gt;Systems Manager&lt;/font&gt;" style="sketch=0;points=[[0,0,0],[0.25,0,0],[0.5,0,0],[0.75,0,0],[1,0,0],[0,1,0],[0.25,1,0],[0.5,1,0],[0.75,1,0],[1,1,0],[0,0.25,0],[0,0.5,0],[0,0.75,0],[1,0.25,0],[1,0.5,0],[1,0.75,0]];points=[[0,0,0],[0.25,0,0],[0.5,0,0],[0.75,0,0],[1,0,0],[0,1,0],[0.25,1,0],[0.5,1,0],[0.75,1,0],[1,1,0],[0,0.25,0],[0,0.5,0],[0,0.75,0],[1,0.25,0],[1,0.5,0],[1,0.75,0]];outlineConnect=0;fontColor=#232F3E;fillColor=#E7157B;strokeColor=#ffffff;dashed=0;verticalLabelPosition=bottom;verticalAlign=top;align=center;html=1;fontSize=12;fontStyle=0;aspect=fixed;shape=mxgraph.aws4.resourceIcon;resIcon=mxgraph.aws4.systems_manager;" vertex="1" parent="A49D8YO8xU1FnvHoC66s-80">
          <mxGeometry x="161" y="40" width="78" height="78" as="geometry" />
        </mxCell>
        <mxCell id="A49D8YO8xU1FnvHoC66s-84" value="Availability Zone" style="fillColor=none;strokeColor=#147EBA;dashed=1;verticalAlign=top;fontStyle=0;fontColor=#147EBA;whiteSpace=wrap;html=1;" vertex="1" parent="A49D8YO8xU1FnvHoC66s-80">
          <mxGeometry x="400" y="190" width="240" height="280" as="geometry" />
        </mxCell>
        <mxCell id="A49D8YO8xU1FnvHoC66s-85" value="Instance 1" style="outlineConnect=0;dashed=0;verticalLabelPosition=bottom;verticalAlign=top;align=center;html=1;shape=mxgraph.aws3.ec2;fillColor=#F58534;gradientColor=none;" vertex="1" parent="A49D8YO8xU1FnvHoC66s-80">
          <mxGeometry x="110" y="295" width="56.5" height="70" as="geometry" />
        </mxCell>
        <mxCell id="A49D8YO8xU1FnvHoC66s-86" value="Instance 2" style="outlineConnect=0;dashed=0;verticalLabelPosition=bottom;verticalAlign=top;align=center;html=1;shape=mxgraph.aws3.ec2;fillColor=#F58534;gradientColor=none;" vertex="1" parent="A49D8YO8xU1FnvHoC66s-80">
          <mxGeometry x="228" y="295" width="56.5" height="70" as="geometry" />
        </mxCell>
        <mxCell id="A49D8YO8xU1FnvHoC66s-87" value="Instance 3" style="outlineConnect=0;dashed=0;verticalLabelPosition=bottom;verticalAlign=top;align=center;html=1;shape=mxgraph.aws3.ec2;fillColor=#F58534;gradientColor=none;" vertex="1" parent="A49D8YO8xU1FnvHoC66s-80">
          <mxGeometry x="440" y="290" width="56.5" height="70" as="geometry" />
        </mxCell>
        <mxCell id="A49D8YO8xU1FnvHoC66s-88" value="Instance 4" style="outlineConnect=0;dashed=0;verticalLabelPosition=bottom;verticalAlign=top;align=center;html=1;shape=mxgraph.aws3.ec2;fillColor=#F58534;gradientColor=none;" vertex="1" parent="A49D8YO8xU1FnvHoC66s-80">
          <mxGeometry x="540" y="290" width="56.5" height="70" as="geometry" />
        </mxCell>
        <mxCell id="A49D8YO8xU1FnvHoC66s-89" style="rounded=0;orthogonalLoop=1;jettySize=auto;html=1;entryX=0.5;entryY=0;entryDx=0;entryDy=0;entryPerimeter=0;" edge="1" parent="A49D8YO8xU1FnvHoC66s-80" source="A49D8YO8xU1FnvHoC66s-83" target="A49D8YO8xU1FnvHoC66s-85">
          <mxGeometry relative="1" as="geometry" />
        </mxCell>
        <mxCell id="A49D8YO8xU1FnvHoC66s-121" value="GTQ" style="edgeLabel;html=1;align=center;verticalAlign=middle;resizable=0;points=[];" vertex="1" connectable="0" parent="A49D8YO8xU1FnvHoC66s-89">
          <mxGeometry x="-0.4667" y="1" relative="1" as="geometry">
            <mxPoint as="offset" />
          </mxGeometry>
        </mxCell>
        <mxCell id="A49D8YO8xU1FnvHoC66s-90" style="rounded=0;orthogonalLoop=1;jettySize=auto;html=1;entryX=0.5;entryY=0;entryDx=0;entryDy=0;entryPerimeter=0;" edge="1" parent="A49D8YO8xU1FnvHoC66s-80" source="A49D8YO8xU1FnvHoC66s-83" target="A49D8YO8xU1FnvHoC66s-87">
          <mxGeometry relative="1" as="geometry" />
        </mxCell>
        <mxCell id="A49D8YO8xU1FnvHoC66s-123" value="GTQ" style="edgeLabel;html=1;align=center;verticalAlign=middle;resizable=0;points=[];" vertex="1" connectable="0" parent="A49D8YO8xU1FnvHoC66s-90">
          <mxGeometry x="-0.3418" y="-3" relative="1" as="geometry">
            <mxPoint x="1" as="offset" />
          </mxGeometry>
        </mxCell>
        <mxCell id="A49D8YO8xU1FnvHoC66s-91" style="rounded=0;orthogonalLoop=1;jettySize=auto;html=1;entryX=0.5;entryY=0;entryDx=0;entryDy=0;entryPerimeter=0;" edge="1" parent="A49D8YO8xU1FnvHoC66s-80" source="A49D8YO8xU1FnvHoC66s-83" target="A49D8YO8xU1FnvHoC66s-88">
          <mxGeometry relative="1" as="geometry" />
        </mxCell>
        <mxCell id="A49D8YO8xU1FnvHoC66s-124" value="GTQ" style="edgeLabel;html=1;align=center;verticalAlign=middle;resizable=0;points=[];" vertex="1" connectable="0" parent="A49D8YO8xU1FnvHoC66s-91">
          <mxGeometry x="-0.1783" y="4" relative="1" as="geometry">
            <mxPoint as="offset" />
          </mxGeometry>
        </mxCell>
        <mxCell id="A49D8YO8xU1FnvHoC66s-92" value="&lt;font color=&quot;#ffffff&quot;&gt;S3 Bucket&lt;/font&gt;" style="sketch=0;points=[[0,0,0],[0.25,0,0],[0.5,0,0],[0.75,0,0],[1,0,0],[0,1,0],[0.25,1,0],[0.5,1,0],[0.75,1,0],[1,1,0],[0,0.25,0],[0,0.5,0],[0,0.75,0],[1,0.25,0],[1,0.5,0],[1,0.75,0]];outlineConnect=0;fontColor=#232F3E;fillColor=#7AA116;strokeColor=#ffffff;dashed=0;verticalLabelPosition=bottom;verticalAlign=top;align=center;html=1;fontSize=12;fontStyle=0;aspect=fixed;shape=mxgraph.aws4.resourceIcon;resIcon=mxgraph.aws4.s3;" vertex="1" parent="A49D8YO8xU1FnvHoC66s-79">
          <mxGeometry x="550" y="660" width="78" height="78" as="geometry" />
        </mxCell>
        <mxCell id="A49D8YO8xU1FnvHoC66s-93" style="rounded=0;orthogonalLoop=1;jettySize=auto;html=1;entryX=0.5;entryY=0;entryDx=0;entryDy=0;entryPerimeter=0;" edge="1" parent="A49D8YO8xU1FnvHoC66s-79" source="A49D8YO8xU1FnvHoC66s-85" target="A49D8YO8xU1FnvHoC66s-92">
          <mxGeometry relative="1" as="geometry">
            <mxPoint x="450" y="660" as="targetPoint" />
          </mxGeometry>
        </mxCell>
        <mxCell id="A49D8YO8xU1FnvHoC66s-94" style="rounded=0;orthogonalLoop=1;jettySize=auto;html=1;" edge="1" parent="A49D8YO8xU1FnvHoC66s-79" source="A49D8YO8xU1FnvHoC66s-87" target="A49D8YO8xU1FnvHoC66s-92">
          <mxGeometry relative="1" as="geometry">
            <mxPoint x="450" y="660" as="targetPoint" />
          </mxGeometry>
        </mxCell>
        <mxCell id="A49D8YO8xU1FnvHoC66s-95" style="rounded=0;orthogonalLoop=1;jettySize=auto;html=1;entryX=0.5;entryY=0;entryDx=0;entryDy=0;entryPerimeter=0;" edge="1" parent="A49D8YO8xU1FnvHoC66s-79" source="A49D8YO8xU1FnvHoC66s-88" target="A49D8YO8xU1FnvHoC66s-92">
          <mxGeometry relative="1" as="geometry">
            <mxPoint x="550.0000000000005" y="670.0000000000002" as="targetPoint" />
          </mxGeometry>
        </mxCell>
        <mxCell id="A49D8YO8xU1FnvHoC66s-96" style="rounded=0;orthogonalLoop=1;jettySize=auto;html=1;entryX=0.5;entryY=0;entryDx=0;entryDy=0;entryPerimeter=0;" edge="1" parent="A49D8YO8xU1FnvHoC66s-79" source="A49D8YO8xU1FnvHoC66s-86" target="A49D8YO8xU1FnvHoC66s-92">
          <mxGeometry relative="1" as="geometry">
            <mxPoint x="450" y="660" as="targetPoint" />
          </mxGeometry>
        </mxCell>
        <mxCell id="A49D8YO8xU1FnvHoC66s-102" style="edgeStyle=orthogonalEdgeStyle;rounded=0;orthogonalLoop=1;jettySize=auto;html=1;entryX=0;entryY=0.5;entryDx=0;entryDy=0;entryPerimeter=0;" edge="1" parent="1" source="A49D8YO8xU1FnvHoC66s-78" target="A49D8YO8xU1FnvHoC66s-83">
          <mxGeometry relative="1" as="geometry" />
        </mxCell>
      </root>
    </mxGraphModel>
  </diagram>
</mxfile>
